<svg
  aria-label="Robinhood"
  role="img"
  viewBox="12 11.5 23 28"
  xmlns="http://www.w3.org/2000/svg"
>
  <g fill="#00C805">
    <path
      d="M26.9628 17.8828H21.3259C21.122 17.8828 20.9365 17.956 20.8067 18.1389L16.7645 23.0787C16.1712 23.8105 16.0228 24.4875 16.0228 25.4571V30.5067C14.7063 34.1475 13.8719 36.6174 13.26 38.8495C13.2044 38.9959 13.2786 39.069 13.4084 39.069H14.0203C14.1315 39.069 14.2242 39.0141 14.2799 38.9227C18.8969 27.3233 23.9219 21.5785 27.074 18.1389C27.2038 17.9926 27.1482 17.8828 26.9628 17.8828Z"
    />
    <path
      d="M26.9301 12.4049C26.5826 12.5695 26.3998 12.6062 26.0341 12.9355C24.3884 14.3443 23.2913 15.4603 22.2491 16.5581C22.1211 16.6862 22.1759 16.8142 22.3588 16.8142H28.5209C29.0877 16.8142 29.4168 17.1436 29.4168 17.7107V24.6632C29.4168 24.8462 29.5631 24.9011 29.6728 24.7364L33.3848 19.888C33.988 19.1013 34.171 18.8634 34.3356 17.7656C34.555 16.1556 34.4269 13.6856 33.458 12.661C32.5985 11.7462 28.722 11.7097 26.9301 12.4049Z"
    />
    <path
      d="M28.2108 19.2855C24.3556 23.5866 21.349 28.1092 18.5637 33.5549C18.4899 33.7025 18.5821 33.8133 18.7481 33.7579L24.5032 31.9858C25.1488 31.8197 25.5177 31.5243 25.8313 31.0074L28.3952 26.7801C28.4506 26.6694 28.469 26.5402 28.469 26.4479V19.3962C28.469 19.2116 28.3399 19.1378 28.2108 19.2855Z"
    />
  </g>
</svg>
